<?xml version="1.0" encoding="UTF-8"?>
<svg xmlns="http://www.w3.org/2000/svg" xmlns:xlink="http://www.w3.org/1999/xlink" viewBox="0 0 661 286">
  <defs>
    <style>
      .cls-1 {
        fill: url(#linear-gradient);
      }

      .cls-1, .cls-2, .cls-3, .cls-4, .cls-5, .cls-6, .cls-7 {
        stroke-width: 0px;
      }

      .cls-8 {
        letter-spacing: .2em;
      }

      .cls-9 {
        isolation: isolate;
      }

      .cls-2 {
        fill: url(#linear-gradient-5);
      }

      .cls-2, .cls-6 {
        mix-blend-mode: multiply;
      }

      .cls-3, .cls-10, .cls-11 {
        fill: #303030;
      }

      .cls-10 {
        font-family: BebasNeueBold, 'Bebas Neue';
        font-size: 81.22px;
      }

      .cls-4 {
        fill: url(#linear-gradient-3);
      }

      .cls-12 {
        letter-spacing: 0em;
      }

      .cls-13 {
        letter-spacing: .19em;
      }

      .cls-5 {
        fill: #fff;
      }

      .cls-6 {
        fill: url(#linear-gradient-2);
      }

      .cls-11 {
        font-family: Inter-ExtraLight, Inter;
        font-size: 23.01px;
        font-weight: 200;
      }

      .cls-7 {
        fill: url(#linear-gradient-4);
      }

      .cls-14 {
        letter-spacing: .21em;
      }

      .cls-15 {
        letter-spacing: .13em;
      }

      .cls-16 {
        letter-spacing: .21em;
      }
    </style>
    <linearGradient id="linear-gradient" x1="68.15" y1="233.57" x2="128.96" y2="71.73" gradientUnits="userSpaceOnUse">
      <stop offset="0" stop-color="#5c1cb2"/>
      <stop offset=".09" stop-color="#7118b3"/>
      <stop offset=".28" stop-color="#a80eb9"/>
      <stop offset=".55" stop-color="#ff00c1"/>
      <stop offset=".62" stop-color="#fd15ad"/>
      <stop offset=".77" stop-color="#fa4c7a"/>
      <stop offset=".98" stop-color="#f4a52a"/>
      <stop offset="1" stop-color="#f4ac24"/>
    </linearGradient>
    <linearGradient id="linear-gradient-2" x1="107.05" y1="144.13" x2="107.05" y2="230.89" gradientUnits="userSpaceOnUse">
      <stop offset="0" stop-color="#5cbffc" stop-opacity="0"/>
      <stop offset=".32" stop-color="rgba(92, 129, 224, .38)" stop-opacity=".38"/>
      <stop offset=".64" stop-color="rgba(92, 74, 199, .71)" stop-opacity=".71"/>
      <stop offset=".88" stop-color="rgba(92, 40, 183, .92)" stop-opacity=".92"/>
      <stop offset="1" stop-color="#5c1cb2"/>
    </linearGradient>
    <linearGradient id="linear-gradient-3" x1="93.56" y1="239.85" x2="149.35" y2="91.38" xlink:href="#linear-gradient"/>
    <linearGradient id="linear-gradient-4" x1="98.67" y1="232.94" x2="157.29" y2="76.92" xlink:href="#linear-gradient"/>
    <linearGradient id="linear-gradient-5" x1="106.57" y1="217.14" x2="106.77" y2="209.58" xlink:href="#linear-gradient-2"/>
  </defs>
  <g class="cls-9">
    <g id="Capa_1" data-name="Capa 1">
      <g>
        <g>
          <path class="cls-1" d="M142.62,82.43c1.63-3.68,6.06-6.58,6.06-6.58-5.48-1.44-10.85-.53-13.95.45-1.81-1.96-9.08-20.13-38.17-17.06,0,0,7.35,4.02,11.8,11.38,0,0-1.88-.12-3.08-.09-31.52.74-58.33,27.96-58.64,59.48-.21,21.21,10.58,39.91,27.01,50.77,2.93,1.93,4.68,5.22,4.68,8.72v1.88c0,5.01,4.06,9.08,9.08,9.08h38.65c5.01,0,9.08-4.06,9.08-9.08v-1.88c0-3.47,1.69-6.76,4.59-8.67,16.32-10.74,27.1-29.22,27.1-50.23,0-19.73-9.51-37.23-24.2-48.19Z"/>
          <path class="cls-6" d="M108.87,178.96c-26.72,0-44.18-5.42-55.26-20.24,4.73,8.93,11.65,16.52,20.04,22.06,2.93,1.93,4.68,5.22,4.68,8.72v1.88c0,5.01,4.06,9.08,9.08,9.08h38.65c5.01,0,9.08-4.06,9.08-9.08v-1.88c0-3.47,1.69-6.76,4.59-8.67,8.82-5.81,16.02-13.88,20.77-23.38-10.47,14.8-32.5,21.5-51.63,21.5Z"/>
          <g>
            <ellipse class="cls-3" cx="134.72" cy="127.44" rx="9.95" ry="13.43"/>
            <circle class="cls-5" cx="131.92" cy="119.59" r="3.59"/>
          </g>
          <g>
            <ellipse class="cls-3" cx="78.39" cy="127.44" rx="9.95" ry="13.43"/>
            <circle class="cls-5" cx="75.59" cy="119.59" r="3.59"/>
          </g>
          <path class="cls-4" d="M127.91,211.13h-43.11c-2.95,0-5.33-2.39-5.33-5.33h0c0-2.95,2.39-5.33,5.33-5.33h43.11c2.95,0,5.33,2.39,5.33,5.33h0c0,2.95-2.39,5.33-5.33,5.33Z"/>
          <path class="cls-7" d="M108.71,227.11h-3.96c-3.99,0-7.55-2.53-8.87-6.3l-3.38-9.67h28.44l-3.38,9.67c-1.32,3.77-4.87,6.3-8.87,6.3Z"/>
          <polygon class="cls-2" points="118.93 216.92 120.95 211.13 92.51 211.13 94.52 216.92 118.93 216.92"/>
          <path class="cls-3" d="M144.26,88.56c-12.61,0-23.6,6.85-29.5,17.03-1.94-2.73-5.12-4.52-8.72-4.52s-6.66,1.72-8.61,4.37c-5.91-10.1-16.87-16.88-29.41-16.88-18.82,0-34.07,15.25-34.07,34.07s15.25,34.07,34.07,34.07,34.07-15.25,34.07-34.07c0-4.18-.76-8.18-2.13-11.89.49-2.92,3.03-5.16,6.08-5.16s5.82,2.43,6.14,5.53c-1.29,3.6-2,7.47-2,11.51,0,18.82,15.25,34.07,34.07,34.07s34.07-15.25,34.07-34.07-15.25-34.07-34.07-34.07ZM68.03,152.21c-16.34,0-29.59-13.25-29.59-29.59s13.25-29.59,29.59-29.59,29.59,13.25,29.59,29.59-13.25,29.59-29.59,29.59ZM144.26,152.21c-16.34,0-29.59-13.25-29.59-29.59s13.25-29.59,29.59-29.59,29.59,13.25,29.59,29.59-13.25,29.59-29.59,29.59Z"/>
          <path class="cls-3" d="M107.43,166.4c-.34,0-.69-.01-1.04-.04-4.64-.34-8.98-3.05-11.31-7.08-.85-1.48-.35-3.37,1.13-4.23,1.48-.85,3.37-.35,4.23,1.13,1.3,2.25,3.81,3.82,6.4,4.01,2.41.18,5.51-.74,7.04-3.83.76-1.53,2.61-2.16,4.14-1.41,1.53.75,2.16,2.61,1.41,4.14-2.22,4.51-6.86,7.3-12,7.3Z"/>
        </g>
        <g>
          <text class="cls-10" transform="translate(198.08 146.68)"><tspan x="0" y="0">CÓDIGO CREATI</tspan><tspan class="cls-12" x="359.78" y="0">V</tspan><tspan x="392.35" y="0">O</tspan></text>
          <text class="cls-11" transform="translate(203.61 194.63)"><tspan class="cls-15" x="0" y="0">T</tspan><tspan class="cls-14" x="17.38" y="0">u his</tspan><tspan class="cls-8" x="90.75" y="0">t</tspan><tspan class="cls-16" x="103.49" y="0">oria, nuest</tspan><tspan class="cls-13" x="266.72" y="0">r</tspan><tspan class="cls-16" x="278.91" y="0">o diseño.</tspan></text>
        </g>
      </g>
    </g>
  </g>
</svg>